<svg data-v-4c681a64="" data-v-05a511f9="" xmlns="http://www.w3.org/2000/svg" xml:space="preserve" viewBox="0 0 268.792 268.792" class="icon small text-icon-contrast text-undefined"><path fill="#2d3f51" d="M.001.001h268.792v268.792H.001z"></path><path d="M155.914 111.506c2.284 2.092 8.377 8.155 11.805 8.155 4.76 0 4.952-8.574 4.952-12.128 0-5.23-.192-14.222-1.715-19.03-2.666-8.784-12.758-5.648-12.758-16.94 0-13.385 19.422-12.758 27.42-12.758 8.38 0 29.136-1.046 29.136 13.384 0 11.922-10.092 7.53-13.33 17.15-2.475 7.529-2.475 20.494-2.475 28.44v54.164c0 9.411 1.142 38.06-11.616 38.06-3.809 0-7.045-2.508-9.902-5.227l-58.84-57.928c-2.666-2.72-7.617-7.738-11.616-7.738-5.902 0-6.093 13.594-6.093 17.986 0 5.855.19 13.593 1.332 19.03 2.858 13.385 12.95 8.366 12.95 18.612 0 14.011-19.614 15.266-28.563 15.266-8.76 0-28.373-1.255-28.373-14.847 0-11.084 11.044-6.692 12.948-20.076 1.333-8.992 1.714-22.168 1.714-31.58 0-15.056 0-30.322-2.095-45.38-3.047-20.913-16.757-12.756-16.757-25.305 0-14.846 25.707-14.011 34.277-14.011 11.805 0 13.9.838 22.469 9.203l45.13 43.498z" style="fill: rgb(255, 255, 255);"></path></svg>